<svg width="52" height="63" viewBox="0 0 52 63" fill="none" xmlns="http://www.w3.org/2000/svg">
<path fill-rule="evenodd" clip-rule="evenodd" d="M12.1333 62.3147H10.3999C4.66522 62.3147 0 57.698 0 52.0226V10.8546C0 5.17931 4.66522 0.5625 10.3999 0.5625H12.1333V7.42365L10.3999 7.42378C8.48886 7.42378 6.93319 8.96265 6.93319 10.8546V16.0004H29.4666V33.154H22.5334V22.8618H6.93319V52.0226C6.93319 53.9138 8.48886 55.4532 10.3999 55.4532H12.1333V62.3147ZM41.5999 62.315H22.5333V38.3007H41.5999V45.1624H29.4665V55.4536H41.5999C43.511 55.4536 45.0668 53.9142 45.0668 52.023V10.8549C45.0668 8.96302 43.511 7.42416 41.5999 7.42416L39.8667 7.42402V0.562873H41.5999C47.3348 0.562873 52 5.17968 52 10.8549V52.023C52 57.6983 47.3348 62.315 41.5999 62.315Z" fill="url(#paint0_linear)"/>
<defs>
<linearGradient id="paint0_linear" x1="11.8182" y1="7.9307" x2="76.0429" y2="37.9" gradientUnits="userSpaceOnUse">
<stop stop-color="#5820E5"/>
<stop offset="1" stop-color="#DB12F9"/>
</linearGradient>
</defs>
</svg>
