<svg width="67" height="79" viewBox="0 0 67 79" fill="none" xmlns="http://www.w3.org/2000/svg">
<path fill-rule="evenodd" clip-rule="evenodd" d="M15.5222 78.9998H13.3046C5.96823 78.9998 0 73.0936 0 65.8331V13.1667C0 5.9063 5.96823 0 13.3046 0H15.5222V8.77749L13.3046 8.77767C10.8598 8.77767 8.86965 10.7463 8.86965 13.1667V19.7498H37.6967V41.6944H28.8271V28.5275H8.86965V65.8331C8.86965 68.2526 10.8598 70.2219 13.3046 70.2219H15.5222V78.9998ZM53.219 79.0002H28.827V48.2787H53.219V57.0568H37.6967V70.2224H53.219C55.6638 70.2224 57.6542 68.253 57.6542 65.8336V13.1672C57.6542 10.7468 55.6638 8.77815 53.219 8.77815L51.0016 8.77797V0.00048248H53.219C60.5556 0.00048248 66.5238 5.90678 66.5238 13.1672V65.8336C66.5238 73.0941 60.5556 79.0002 53.219 79.0002Z" fill="#FEFEFF"/>
</svg>
